
<svg version="1.0" xmlns="http://www.w3.org/2000/svg"
 width="1771.000000pt" height="2000.000000pt" viewBox="0 0 1771.000000 2000.000000"
 preserveAspectRatio="xMidYMid meet">
<metadata>
Created by potrace 1.16, written by Peter Selinger 2001-2019
</metadata>
<g transform="translate(0.000000,2000.000000) scale(0.100000,-0.100000)"
id="logo"
fill="#f6092c" stroke="none">
<path d="M8560 16149 c-996 -60 -1930 -404 -2726 -1002 -181 -137 -303 -244
-492 -430 -300 -297 -508 -552 -722 -887 -391 -614 -646 -1324 -739 -2065
-111 -878 20 -1797 369 -2600 261 -600 596 -1093 1060 -1555 171 -172 352
-332 519 -458 346 -265 777 -507 1178 -663 l113 -44 707 -1219 c523 -900 720
-1232 754 -1267 149 -153 393 -154 546 -1 38 38 200 310 756 1269 l709 1221
86 32 c324 121 751 351 1073 577 323 226 634 512 935 858 158 183 395 523 530
760 538 951 750 2040 608 3125 -99 757 -371 1486 -787 2110 -212 318 -389 531
-673 811 -187 183 -316 296 -476 417 -957 725 -2136 1083 -3328 1011z m-662
-1590 c73 -42 137 -125 164 -213 26 -87 21 -170 -21 -311 -80 -271 -271 -943
-271 -953 0 -9 65 -12 277 -10 l277 3 188 658 c209 735 209 734 318 810 75 52
144 70 244 65 107 -6 176 -38 249 -118 74 -79 101 -149 101 -255 -1 -84 10
-45 -344 -1265 -22 -74 -42 -146 -45 -160 -10 -45 153 -417 403 -917 379 -759
759 -1370 1155 -1858 159 -196 440 -477 582 -583 179 -134 403 -232 530 -232
106 0 233 -45 293 -103 78 -75 122 -177 122 -284 0 -158 -116 -313 -267 -358
-102 -30 -298 -15 -478 36 -510 146 -1005 548 -1536 1249 -320 423 -706 1060
-1026 1695 -47 94 -90 175 -97 182 -8 9 -36 -73 -113 -345 -56 -196 -247 -863
-423 -1482 -235 -821 -329 -1139 -351 -1177 -36 -63 -94 -112 -175 -150 -51
-24 -71 -28 -149 -28 -80 1 -97 4 -155 32 -132 65 -210 179 -218 323 -4 69 0
94 42 238 25 89 46 166 46 172 0 7 -93 10 -277 10 l-278 0 -74 -265 c-100
-355 -131 -408 -281 -479 -58 -28 -75 -31 -155 -31 -80 1 -97 4 -155 32 -84
41 -142 99 -182 181 -30 60 -33 75 -33 157 0 89 6 110 774 2795 425 1488 782
2728 793 2757 61 165 254 265 432 226 33 -8 84 -28 114 -44z"/>
<path d="M7545 12298 c-10 -27 -215 -750 -215 -759 0 -6 110 -8 276 -7 l277 3
108 380 c60 209 109 383 109 388 0 4 -124 7 -275 7 -211 0 -277 -3 -280 -12z"/>
<path d="M7105 10758 c-3 -7 -53 -183 -113 -390 l-108 -378 277 0 278 0 25 83
c39 130 196 682 196 690 0 4 -124 7 -275 7 -211 0 -277 -3 -280 -12z"/>
</g>
</svg>
