<?xml version="1.0" standalone="no"?>
<!DOCTYPE svg PUBLIC "-//W3C//DTD SVG 20010904//EN"
 "http://www.w3.org/TR/2001/REC-SVG-20010904/DTD/svg10.dtd">
<svg version="1.0" xmlns="http://www.w3.org/2000/svg"
 width="2000.000000pt" height="2000.000000pt" viewBox="0 0 2000.000000 2000.000000"
 preserveAspectRatio="xMidYMid meet">
<metadata>
Created by potrace 1.14, written by Peter Selinger 2001-2017
</metadata>
<g transform="translate(0.000000,2000.000000) scale(0.100000,-0.100000)"
fill="#000000" stroke="none">
<path d="M9689 17426 c-2 -2 -51 -7 -109 -11 -120 -8 -168 -12 -225 -19 -22
-3 -67 -8 -100 -11 -129 -13 -390 -59 -570 -100 -433 -100 -746 -202 -1138
-374 -148 -65 -395 -187 -455 -224 -20 -13 -68 -41 -107 -62 -38 -20 -89 -50
-113 -66 -24 -16 -45 -29 -46 -29 -7 0 -183 -114 -283 -182 -152 -105 -421
-315 -517 -403 -6 -5 -31 -28 -56 -49 -120 -104 -426 -414 -520 -526 -30 -36
-57 -67 -60 -70 -6 -6 -101 -120 -113 -135 -43 -57 -73 -96 -100 -129 -18 -21
-36 -46 -42 -55 -5 -10 -42 -62 -82 -117 -92 -128 -211 -316 -307 -485 -42
-74 -80 -141 -86 -149 -5 -8 -20 -37 -33 -65 -64 -130 -89 -181 -97 -195 -8
-15 -15 -29 -88 -195 -49 -111 -116 -287 -163 -430 -22 -66 -44 -129 -49 -140
-28 -68 -157 -580 -175 -695 -4 -25 -9 -54 -11 -65 -3 -11 -7 -36 -10 -55 -3
-19 -9 -60 -14 -90 -9 -52 -13 -76 -25 -180 -3 -25 -8 -61 -10 -81 -6 -40 -10
-83 -21 -249 -16 -226 -9 -838 11 -970 2 -14 6 -55 10 -92 3 -37 8 -75 10 -86
2 -10 6 -43 10 -73 21 -176 76 -456 134 -682 69 -264 86 -320 179 -577 54
-147 98 -254 187 -455 40 -91 185 -376 206 -407 11 -14 19 -29 19 -32 0 -9
187 -314 226 -369 19 -26 34 -51 34 -55 0 -5 9 -17 20 -27 11 -10 20 -24 20
-31 0 -7 4 -14 8 -16 4 -1 37 -43 72 -93 36 -49 72 -99 81 -110 9 -11 62 -76
117 -145 193 -241 482 -541 692 -720 36 -30 83 -71 105 -92 34 -31 98 -83 195
-159 281 -218 637 -443 970 -609 205 -103 218 -109 415 -190 83 -34 167 -68
187 -77 37 -16 84 -90 333 -525 6 -10 96 -164 200 -344 105 -179 199 -343 211
-363 154 -267 570 -981 660 -1133 35 -59 64 -110 64 -113 0 -3 16 -31 35 -61
19 -30 35 -56 35 -58 0 -2 35 -64 78 -137 43 -74 91 -156 106 -182 124 -218
415 -301 629 -182 100 56 150 117 268 325 30 52 57 97 61 98 5 2 8 8 8 13 0 5
79 145 176 312 97 166 185 318 196 337 50 87 282 488 297 510 15 25 37 63 86
150 75 132 92 161 103 172 7 7 12 15 12 19 0 4 30 58 66 121 37 62 90 154 119
203 29 50 92 158 140 240 49 83 93 159 99 170 6 11 63 109 126 218 l114 197
140 56 c171 68 320 135 491 221 72 36 148 75 170 86 22 11 56 30 75 42 19 12
39 22 44 23 5 0 12 4 15 9 3 5 29 22 56 37 130 73 458 293 570 381 11 8 31 24
45 35 314 242 658 568 896 851 22 25 58 69 82 97 136 161 419 564 527 750 62
106 115 203 115 211 0 5 4 11 8 13 12 5 151 291 225 463 157 364 265 697 354
1085 31 137 89 474 98 570 3 41 8 88 10 105 2 16 6 50 9 75 3 25 8 90 12 145
3 55 8 123 10 150 8 123 2 569 -10 695 -2 30 -8 89 -11 130 -5 68 -28 260 -40
350 -8 51 -23 134 -45 245 -5 28 -12 61 -14 75 -2 14 -16 73 -30 133 -14 59
-28 118 -30 130 -3 12 -14 54 -26 92 -12 39 -23 81 -26 95 -16 84 -230 684
-255 716 -5 6 -15 28 -23 50 -25 71 -183 386 -270 539 -47 82 -86 151 -86 152
0 2 -8 16 -19 31 -10 15 -54 81 -96 147 -72 110 -192 283 -205 295 -3 3 -17
21 -30 40 -14 19 -53 71 -88 114 -78 96 -78 97 -111 133 -14 17 -46 54 -71 83
-120 142 -417 440 -580 584 -113 100 -460 367 -521 402 -10 6 -27 18 -37 27
-10 10 -24 17 -30 17 -7 0 -12 4 -12 9 0 5 -9 13 -20 16 -11 3 -26 12 -32 19
-24 24 -295 188 -428 259 -155 83 -373 189 -512 248 -174 74 -547 212 -609
224 -9 2 -37 10 -62 19 -39 13 -185 52 -227 61 -8 2 -42 10 -75 18 -77 20
-243 55 -320 68 -75 12 -103 17 -135 24 -14 3 -45 8 -70 11 -25 3 -56 7 -70 9
-36 6 -108 15 -160 20 -25 2 -67 7 -95 10 -27 3 -75 8 -105 11 -61 6 -766 15
-771 10z m-969 -1859 c17 -4 59 -21 110 -45 55 -26 162 -140 192 -202 65 -141
63 -236 -12 -490 -28 -96 -53 -182 -55 -190 -2 -8 -17 -64 -35 -125 -17 -60
-38 -132 -45 -160 -8 -27 -52 -183 -99 -345 l-84 -295 325 -3 c180 -1 328 0
330 2 4 4 72 228 78 256 2 8 15 56 30 105 14 50 33 114 41 143 7 29 55 195
105 370 50 174 92 322 93 327 3 11 19 65 50 170 11 39 21 72 21 75 7 42 44
138 70 186 42 75 124 152 200 188 82 38 208 52 310 32 59 -11 160 -70 216
-126 47 -47 119 -159 119 -187 0 -5 5 -26 11 -48 19 -67 3 -178 -51 -365 -27
-96 -71 -247 -96 -335 -25 -88 -51 -176 -57 -195 -6 -19 -12 -40 -13 -46 -1
-6 -13 -48 -27 -95 -28 -91 -116 -394 -122 -419 -1 -8 -26 -94 -54 -190 -28
-97 -51 -183 -51 -193 0 -9 11 -40 24 -69 52 -115 68 -152 86 -198 20 -51 214
-479 235 -520 8 -14 16 -32 19 -40 3 -8 10 -22 15 -30 4 -8 55 -109 112 -225
92 -185 162 -320 318 -610 24 -44 50 -87 57 -95 7 -8 12 -17 11 -20 0 -3 6
-16 15 -30 41 -67 78 -131 78 -135 0 -3 17 -33 38 -67 21 -35 41 -70 45 -78 7
-15 26 -45 40 -64 4 -6 35 -56 69 -111 116 -190 286 -448 402 -608 39 -54 76
-106 81 -115 6 -9 15 -21 20 -27 6 -7 19 -24 30 -40 193 -270 552 -663 790
-865 61 -51 244 -180 294 -207 191 -103 286 -135 436 -148 159 -14 213 -27
285 -71 102 -61 195 -178 215 -273 3 -12 8 -31 11 -44 13 -51 5 -167 -15 -219
-5 -13 -9 -26 -10 -31 -7 -51 -153 -227 -189 -227 -7 0 -20 -7 -28 -15 -59
-58 -340 -68 -554 -18 -36 8 -74 17 -84 19 -20 4 -110 31 -136 41 -8 4 -17 7
-20 8 -3 1 -18 7 -33 13 -16 7 -30 12 -33 12 -19 0 -224 102 -344 171 -86 50
-344 236 -401 289 -9 8 -36 31 -60 50 -57 45 -402 390 -501 500 -42 47 -107
123 -144 170 -38 47 -73 91 -79 98 -5 7 -15 18 -21 25 -8 10 -100 132 -241
322 -24 33 -352 521 -382 570 -149 238 -491 830 -491 848 0 2 -32 61 -71 132
-38 71 -117 223 -175 338 -98 196 -105 206 -114 180 -6 -15 -13 -35 -16 -43
-3 -8 -8 -24 -10 -35 -2 -11 -15 -58 -29 -105 -15 -47 -28 -95 -31 -107 -2
-12 -9 -35 -15 -50 -6 -16 -10 -29 -10 -30 0 -2 -2 -8 -4 -15 -2 -7 -9 -31
-14 -53 -6 -22 -24 -87 -41 -145 -17 -58 -32 -112 -34 -120 -1 -8 -5 -22 -8
-30 -3 -8 -13 -40 -21 -70 -9 -30 -23 -82 -33 -115 -10 -33 -18 -64 -19 -70
-2 -5 -14 -50 -29 -100 -50 -171 -138 -480 -141 -495 -2 -8 -4 -16 -4 -17 -1
-2 -1 -5 -1 -8 -1 -3 -7 -23 -15 -46 -9 -23 -17 -51 -20 -63 -2 -12 -21 -77
-41 -146 -19 -69 -37 -133 -39 -143 -2 -9 -6 -21 -9 -25 -3 -5 -7 -19 -10 -33
-3 -13 -13 -49 -21 -79 -9 -30 -18 -62 -20 -70 -2 -8 -8 -27 -14 -42 -6 -16
-8 -28 -5 -28 2 0 -2 -13 -11 -30 -9 -16 -14 -30 -11 -30 2 0 -7 -37 -21 -82
-14 -45 -26 -89 -28 -97 -3 -15 -197 -695 -230 -806 -74 -249 -91 -288 -162
-358 -106 -106 -192 -141 -338 -140 -136 0 -226 37 -321 132 -89 88 -134 197
-134 327 0 72 16 144 76 342 19 62 34 117 34 123 0 6 -125 8 -331 7 l-331 -3
-92 -320 c-50 -176 -103 -342 -116 -368 -57 -114 -181 -206 -315 -235 -71 -15
-194 -5 -258 21 -139 56 -258 189 -282 314 -3 15 -9 44 -13 63 -14 64 12 198
84 430 13 43 141 490 170 595 15 54 374 1312 424 1485 16 58 51 177 76 265 26
88 50 174 54 190 8 31 397 1391 430 1505 19 63 526 1840 551 1930 7 25 14 50
15 55 91 324 116 383 199 461 97 92 211 134 345 128 41 -2 82 -5 90 -7z"/>
<path d="M8402 12703 c-15 -58 -198 -701 -238 -835 -5 -17 15 -18 325 -18
l330 0 16 53 c93 325 147 515 150 527 2 8 24 86 49 173 25 86 46 162 46 167 0
6 -118 10 -329 10 l-329 0 -20 -77z"/>
<path d="M7882 10883 c-5 -21 -38 -135 -72 -253 -34 -118 -66 -228 -70 -245
-5 -16 -25 -86 -45 -155 -20 -69 -38 -132 -40 -140 -2 -8 -9 -31 -14 -50 -6
-19 -11 -38 -11 -42 0 -5 148 -8 329 -8 l328 0 128 448 c70 246 130 455 133
465 4 16 -16 17 -326 17 l-330 0 -10 -37z"/>
</g>
</svg>
